<?xml version="1.0" encoding="UTF-8" standalone="no"?>
<!-- Created with Inkscape (http://www.inkscape.org/) -->

<svg
   xmlns:dc="http://purl.org/dc/elements/1.1/"
   xmlns:cc="http://creativecommons.org/ns#"
   xmlns:rdf="http://www.w3.org/1999/02/22-rdf-syntax-ns#"
   xmlns:svg="http://www.w3.org/2000/svg"
   xmlns="http://www.w3.org/2000/svg"
   xmlns:sodipodi="http://sodipodi.sourceforge.net/DTD/sodipodi-0.dtd"
   xmlns:inkscape="http://www.inkscape.org/namespaces/inkscape"
   width="1183.0546mm"
   height="651.66644mm"
   viewBox="0 0 1183.0545 651.66641"
   version="1.1"
   id="svg872"
   inkscape:version="0.92.3 (2405546, 2018-03-11)"
   sodipodi:docname="logo_thin.svg">
  <defs
     id="defs866" />
  <sodipodi:namedview
     id="base"
     pagecolor="#ffffff"
     bordercolor="#666666"
     borderopacity="1.0"
     inkscape:pageopacity="0.0"
     inkscape:pageshadow="2"
     inkscape:zoom="0.25"
     inkscape:cx="2219.1465"
     inkscape:cy="1256.0311"
     inkscape:document-units="mm"
     inkscape:current-layer="layer1"
     showgrid="false"
     inkscape:pagecheckerboard="true"
     inkscape:window-width="2560"
     inkscape:window-height="1051"
     inkscape:window-x="1280"
     inkscape:window-y="0"
     inkscape:window-maximized="1"
     inkscape:snap-global="false"
     showguides="false"
     inkscape:guide-bbox="true">
    <sodipodi:guide
       position="591.53016,99.875207"
       orientation="1,0"
       id="guide822"
       inkscape:locked="false" />
    <sodipodi:guide
       position="284.45863,540.34411"
       orientation="1,0"
       id="guide824"
       inkscape:locked="false" />
    <sodipodi:guide
       position="818.06839,414.34279"
       orientation="1,0"
       id="guide826"
       inkscape:locked="false" />
    <sodipodi:guide
       position="363.49769,410.93628"
       orientation="1,0"
       id="guide836"
       inkscape:locked="false" />
  </sodipodi:namedview>
  <metadata
     id="metadata869">
    <rdf:RDF>
      <cc:Work
         rdf:about="">
        <dc:format>image/svg+xml</dc:format>
        <dc:type
           rdf:resource="http://purl.org/dc/dcmitype/StillImage" />
        <dc:title />
      </cc:Work>
    </rdf:RDF>
  </metadata>
  <g
     inkscape:label="Layer 1"
     inkscape:groupmode="layer"
     id="layer1"
     transform="translate(-426.75426,888.69903)">
    <path
       style="fill:#ffffff;fill-opacity:1;stroke:none;stroke-width:0.22736946;stroke-linecap:butt;stroke-linejoin:miter;stroke-miterlimit:4;stroke-dasharray:none;stroke-opacity:1"
       d="m 844.54251,-888.69903 -41.18034,8.65714 -36.96849,8.89114 -30.65128,14.97473 -27.37549,17.31447 -13.33682,28.31135 -12.16676,14.74051 -12.06159,21.60798 19.08083,-10.61089 38.37256,-13.57085 39.07442,-12.86879 47.49754,-7.72128 54.04913,-16.61243 62.23824,-8.65713 25.50379,32.28899 27.14152,-2.80777 -35.79886,-32.289 -36.03263,-29.2474 -32.52301,-5.61554 z"
       id="path1431"
       inkscape:connector-curvature="0" />
    <path
       style="fill:#ffffff;fill-opacity:1;stroke:none;stroke-width:0.92736137;stroke-linecap:butt;stroke-linejoin:miter;stroke-miterlimit:4;stroke-dasharray:none;stroke-opacity:1"
       d="m 2374.5449,106.63867 -200.0449,10.59961 -111.2832,84.125 -76.8379,7.94922 -257.6738,31.79492 -41.7324,118.57031 -185.0918,127.19727 -73.0684,175.17773 36.5332,118.03321 -91.6895,114.14844 80.8145,180.17382 -19.873,242.4375 108.6347,75.5137 47.6934,185.4726 207.9922,82.1368 109.959,107.3105 262.3105,30.4707 96.7109,-64.916 182.8223,59.6152 112.6074,-91.4101 91.4121,-25.1719 95.3848,-63.5899 124.5312,-117.9082 107.3106,-54.3164 7.9473,-209.3183 74.1894,-86.1114 -10.5976,-160.30269 38.4179,-137.77929 -84.7871,-111.28321 -46.3672,-237.13867 -156.7715,-78.69141 -74.0039,-186.41992 -153.6328,-48.71093 z m -23.5058,184.37695 160.2714,61.51758 122.0059,38.58789 58.7715,147.67383 124.498,62.33594 36.8223,187.85156 67.3359,88.1543 -30.5117,109.14258 8.418,126.9844 -58.918,68.2148 -6.3125,165.8125 -85.2187,43.0293 -98.8965,93.4004 -75.75,50.375 -72.5957,19.9375 -89.4258,72.4121 -145.1894,-47.2246 -76.8028,51.4238 -208.3125,-24.1367 -87.3242,-85.0078 -165.1777,-65.0645 -37.8731,-146.9238 -86.2734,-59.8203 15.7832,-192.0488 -64.1797,-142.72463 72.8164,-90.42383 -29.0137,-93.50391 58.0274,-138.76562 146.9902,-100.76172 33.1406,-93.92773 204.6309,-25.18555 61.0234,-6.29688 88.3731,-66.64062 z"
       transform="matrix(0.26458333,0,0,0.26458333,426.75426,-877.0894)"
       id="path1499"
       inkscape:connector-curvature="0" />
    <text
       xml:space="preserve"
       style="font-style:normal;font-variant:normal;font-weight:normal;font-stretch:normal;font-size:42.33333206px;line-height:1.25;font-family:Roboto;-inkscape-font-specification:Roboto;letter-spacing:0px;word-spacing:0px;fill:#000000;fill-opacity:1;stroke:none;stroke-width:0.26458332"
       x="419.21811"
       y="-238.23837"
       id="text817"><tspan
         sodipodi:role="line"
         id="tspan815"
         x="419.21811"
         y="-238.23837"
         style="font-style:normal;font-variant:normal;font-weight:normal;font-stretch:normal;font-size:123.47223663px;font-family:'Roboto Condensed';-inkscape-font-specification:'Roboto Condensed, ';fill:#ffffff;stroke-width:0.26458332">ORANGE-MANAGEMENT</tspan></text>
  </g>
  <g
     inkscape:groupmode="layer"
     id="layer2"
     inkscape:label="fill"
     style="opacity:1"
     transform="translate(-426.75426,-214.30097)" />
</svg>
